<svg xmlns="http://www.w3.org/2000/svg" viewBox="0 0 1200 800" style="background: linear-gradient(135deg, #667eea 0%, #764ba2 100%);">
  <!-- λ©”μΈ μ»¨ν…μ΄λ„ -->
  <defs>
    <linearGradient id="cardGradient" x1="0%" y1="0%" x2="100%" y2="100%">
      <stop offset="0%" style="stop-color:#ffffff;stop-opacity:0.95" />
      <stop offset="100%" style="stop-color:#f8fafc;stop-opacity:0.9" />
    </linearGradient>
    <linearGradient id="progressGradient" x1="0%" y1="0%" x2="100%" y2="0%">
      <stop offset="0%" style="stop-color:#10b981;stop-opacity:1" />
      <stop offset="100%" style="stop-color:#34d399;stop-opacity:1" />
    </linearGradient>
    <filter id="shadow" x="-50%" y="-50%" width="200%" height="200%">
      <feDropShadow dx="0" dy="4" stdDeviation="8" flood-opacity="0.1"/>
    </filter>
  </defs>

  <!-- ν—¤λ” -->
  <rect x="20" y="20" width="1160" height="80" rx="16" fill="url(#cardGradient)" filter="url(#shadow)"/>
  <text x="60" y="45" font-family="Arial, sans-serif" font-size="18" font-weight="bold" fill="#1f2937">π― μ‹¤μ‹κ°„ λ©΄μ ‘ ν”Όλ“λ°± μ‹μ¤ν…</text>
  <text x="60" y="75" font-family="Arial, sans-serif" font-size="14" fill="#6b7280">AIκ°€ μ‹¤μ‹κ°„μΌλ΅ λ‹Ήμ‹ μ λ©΄μ ‘μ„ λ¶„μ„ν•κ³  ν”Όλ“λ°±μ„ μ κ³µν•©λ‹λ‹¤</text>
  
  <!-- λ…Ήν™” μƒνƒ ν‘μ‹ -->
  <circle cx="1100" cy="60" r="8" fill="#ef4444">
    <animate attributeName="opacity" values="1;0.3;1" dur="2s" repeatCount="indefinite"/>
  </circle>
  <text x="1120" y="65" font-family="Arial, sans-serif" font-size="12" fill="#ef4444" font-weight="bold">REC</text>

  <!-- λΉ„λ””μ¤ ν”Όλ“ μμ—­ -->
  <rect x="20" y="120" width="700" height="520" rx="16" fill="url(#cardGradient)" filter="url(#shadow)"/>
  <rect x="40" y="140" width="660" height="370" rx="12" fill="#1f2937"/>
  
  <!-- λΉ„λ””μ¤ ν”λ μ΄μ¤ν™€λ” -->
  <rect x="40" y="140" width="660" height="370" rx="12" fill="#374151"/>
  <circle cx="370" cy="325" r="40" fill="#6b7280" opacity="0.5"/>
  <polygon points="360,305 360,345 390,325" fill="#9ca3af"/>
  <text x="370" y="375" text-anchor="middle" font-family="Arial, sans-serif" font-size="14" fill="#9ca3af">μΉ΄λ©”λΌ ν”Όλ“</text>

  <!-- μ–Όκµ΄ κ°μ§€ μ¤λ²„λ μ΄ -->
  <rect x="250" y="200" width="240" height="280" rx="8" fill="none" stroke="#10b981" stroke-width="2" stroke-dasharray="5,5">
    <animate attributeName="stroke-dashoffset" values="0;10" dur="1s" repeatCount="indefinite"/>
  </rect>
  <text x="370" y="190" text-anchor="middle" font-family="Arial, sans-serif" font-size="12" fill="#10b981" font-weight="bold">Face Detected β“</text>

  <!-- λλ“λ§ν¬ ν¬μΈνΈ -->
  <circle cx="320" cy="250" r="3" fill="#fbbf24"/> <!-- μ™Όμ½ λ -->
  <circle cx="420" cy="250" r="3" fill="#fbbf24"/> <!-- μ¤λ¥Έμ½ λ -->
  <circle cx="370" cy="290" r="3" fill="#f87171"/> <!-- μ½” -->
  <circle cx="370" cy="330" r="3" fill="#a78bfa"/> <!-- μ… -->

  <!-- μ‹¤μ‹κ°„ ν”Όλ“λ°± μ¤λ²„λ μ΄ -->
  <rect x="60" y="530" width="620" height="90" rx="12" fill="rgba(0,0,0,0.8)"/>
  <text x="80" y="555" font-family="Arial, sans-serif" font-size="16" fill="#10b981" font-weight="bold">β… μΆ‹μµλ‹λ‹¤!</text>
  <text x="80" y="575" font-family="Arial, sans-serif" font-size="14" fill="#ffffff">β€Ά μμ—°μ¤λ¬μ΄ λ―Έμ†λ¥Ό μ μ§€ν•κ³  μμ–΄μ”</text>
  <text x="80" y="595" font-family="Arial, sans-serif" font-size="14" fill="#ffffff">β€Ά μ‹μ„ μ΄ μΉ΄λ©”λΌλ¥Ό μ λ³΄κ³  μμ–΄μ”</text>
  <text x="80" y="615" font-family="Arial, sans-serif" font-size="14" fill="#fbbf24">β  λ§ μ†λ„λ¥Ό μ΅°κΈ λ¦μ¶°λ³΄μ„Έμ”</text>

  <!-- μ°μΈ΅ λ¶„μ„ ν¨λ„ -->
  <rect x="740" y="120" width="440" height="520" rx="16" fill="url(#cardGradient)" filter="url(#shadow)"/>
  
  <!-- κ°μ • λ¶„μ„ -->
  <text x="760" y="150" font-family="Arial, sans-serif" font-size="16" font-weight="bold" fill="#1f2937">π κ°μ • λ¶„μ„</text>
  <rect x="760" y="160" width="400" height="80" rx="8" fill="#f3f4f6"/>
  
  <text x="780" y="180" font-family="Arial, sans-serif" font-size="14" fill="#374151">μμ‹ κ°</text>
  <rect x="780" y="185" width="360" height="8" rx="4" fill="#e5e7eb"/>
  <rect x="780" y="185" width="288" height="8" rx="4" fill="url(#progressGradient)"/>
  <text x="1120" y="195" font-family="Arial, sans-serif" font-size="12" fill="#10b981" text-anchor="end">80%</text>

  <text x="780" y="210" font-family="Arial, sans-serif" font-size="14" fill="#374151">μ§‘μ¤‘λ„</text>
  <rect x="780" y="215" width="360" height="8" rx="4" fill="#e5e7eb"/>
  <rect x="780" y="215" width="324" height="8" rx="4" fill="url(#progressGradient)"/>
  <text x="1120" y="225" font-family="Arial, sans-serif" font-size="12" fill="#10b981" text-anchor="end">90%</text>

  <!-- μμ„Έ λ¶„μ„ -->
  <text x="760" y="270" font-family="Arial, sans-serif" font-size="16" font-weight="bold" fill="#1f2937">π§ μμ„Έ λ¶„μ„</text>
  <rect x="760" y="280" width="400" height="100" rx="8" fill="#f3f4f6"/>
  
  <!-- μΈμ²΄ μ‹¤λ£¨μ—£ -->
  <g transform="translate(780, 300)">
    <ellipse cx="30" cy="15" rx="12" ry="15" fill="#6b7280"/> <!-- λ¨Έλ¦¬ -->
    <rect x="24" y="25" width="12" height="35" rx="6" fill="#6b7280"/> <!-- λΈν†µ -->
    <rect x="15" y="30" width="8" height="25" rx="4" fill="#10b981"/> <!-- μ™Όν” -->
    <rect x="37" y="30" width="8" height="25" rx="4" fill="#10b981"/> <!-- μ¤λ¥Έν” -->
  </g>
  
  <text x="850" y="320" font-family="Arial, sans-serif" font-size="14" fill="#374151">μ–΄κΉ¨ μ„μΉ: κ· ν•μ΅ν β“</text>
  <text x="850" y="340" font-family="Arial, sans-serif" font-size="14" fill="#374151">λ“± μμ„Έ: κ³§κ² ν΄μ§ β“</text>
  <text x="850" y="360" font-family="Arial, sans-serif" font-size="14" fill="#f59e0b">μ† μ μ¤μ²: κ³Όλ„ν•¨ β </text>

  <!-- μμ„± λ¶„μ„ -->
  <text x="760" y="410" font-family="Arial, sans-serif" font-size="16" font-weight="bold" fill="#1f2937">π¤ μμ„± λ¶„μ„</text>
  <rect x="760" y="420" width="400" height="120" rx="8" fill="#f3f4f6"/>
  
  <!-- μμ„± νν• μ‹κ°ν™” -->
  <g transform="translate(780, 440)">
    <rect x="0" y="30" width="4" height="20" fill="#3b82f6">
      <animate attributeName="height" values="20;40;15;35;25" dur="2s" repeatCount="indefinite"/>
    </rect>
    <rect x="8" y="25" width="4" height="30" fill="#3b82f6">
      <animate attributeName="height" values="30;45;20;40;30" dur="2s" begin="0.2s" repeatCount="indefinite"/>
    </rect>
    <rect x="16" y="35" width="4" height="15" fill="#3b82f6">
      <animate attributeName="height" values="15;25;10;30;20" dur="2s" begin="0.4s" repeatCount="indefinite"/>
    </rect>
    <rect x="24" y="20" width="4" height="40" fill="#3b82f6">
      <animate attributeName="height" values="40;50;25;45;35" dur="2s" begin="0.6s" repeatCount="indefinite"/>
    </rect>
    <rect x="32" y="30" width="4" height="20" fill="#3b82f6">
      <animate attributeName="height" values="20;35;15;40;25" dur="2s" begin="0.8s" repeatCount="indefinite"/>
    </rect>
  </g>
  
  <text x="880" y="460" font-family="Arial, sans-serif" font-size="14" fill="#374151">λ§ μ†λ„: 180 WPM (λΉ λ¦„)</text>
  <text x="880" y="480" font-family="Arial, sans-serif" font-size="14" fill="#374151">μμ„± ν†¤: μ•μ •μ </text>
  <text x="880" y="500" font-family="Arial, sans-serif" font-size="14" fill="#374151">μ–µμ–‘ λ³€ν™”: μ μ ν•¨</text>
  <text x="880" y="520" font-family="Arial, sans-serif" font-size="14" fill="#f59e0b">λ³Όλ¥¨: μ΅°κΈ λ‚®μ β </text>

  <!-- μΆ…ν•© μ μ -->
  <text x="760" y="570" font-family="Arial, sans-serif" font-size="16" font-weight="bold" fill="#1f2937">π“ μΆ…ν•© μ μ</text>
  <rect x="760" y="580" width="400" height="50" rx="8" fill="#f3f4f6"/>
  
  <text x="780" y="600" font-family="Arial, sans-serif" font-size="18" font-weight="bold" fill="#10b981">85/100</text>
  <text x="780" y="620" font-family="Arial, sans-serif" font-size="14" fill="#6b7280">μ „λ°μ μΌλ΅ μΆ‹μ€ λ©΄μ ‘ μμ„Έμ…λ‹λ‹¤!</text>

  <!-- μ‹¤μ‹κ°„ μ•λ¦Ό -->
  <g transform="translate(900, 20)">
    <rect x="0" y="0" width="200" height="40" rx="20" fill="#10b981" opacity="0.9">
      <animate attributeName="opacity" values="0.9;0.6;0.9" dur="3s" repeatCount="indefinite"/>
    </rect>
    <text x="100" y="15" text-anchor="middle" font-family="Arial, sans-serif" font-size="12" fill="white" font-weight="bold">π’΅ μ‹¤μ‹κ°„ ν</text>
    <text x="100" y="30" text-anchor="middle" font-family="Arial, sans-serif" font-size="10" fill="white">λλ§μ¶¤μ„ λ” μμ£Ό ν•΄λ³΄μ„Έμ”</text>
  </g>

  <!-- ν•λ‹¨ μ»¨νΈλ΅¤ -->
  <rect x="20" y="660" width="1160" height="120" rx="16" fill="url(#cardGradient)" filter="url(#shadow)"/>
  
  <!-- λ…Ήν™” μ»¨νΈλ΅¤ -->
  <circle cx="100" cy="720" r="25" fill="#ef4444"/>
  <rect x="90" y="710" width="20" height="20" fill="white"/>
  <text x="140" y="725" font-family="Arial, sans-serif" font-size="14" fill="#374151">λ…Ήν™” μ¤‘μ§€</text>

  <!-- μΌμ‹μ •μ§€ -->
  <circle cx="250" cy="720" r="25" fill="#6b7280"/>
  <rect x="240" y="710" width="6" height="20" fill="white"/>
  <rect x="250" y="710" width="6" height="20" fill="white"/>
  <text x="290" y="725" font-family="Arial, sans-serif" font-size="14" fill="#374151">μΌμ‹μ •μ§€</text>

  <!-- μ„¤μ • -->
  <circle cx="400" cy="720" r="25" fill="#3b82f6"/>
  <g transform="translate(385, 705)">
    <circle cx="15" cy="15" r="8" fill="none" stroke="white" stroke-width="2"/>
    <circle cx="15" cy="15" r="3" fill="white"/>
    <line x1="15" y1="2" x2="15" y2="6" stroke="white" stroke-width="2"/>
    <line x1="15" y1="24" x2="15" y2="28" stroke="white" stroke-width="2"/>
    <line x1="2" y1="15" x2="6" y2="15" stroke="white" stroke-width="2"/>
    <line x1="24" y1="15" x2="28" y2="15" stroke="white" stroke-width="2"/>
  </g>
  <text x="440" y="725" font-family="Arial, sans-serif" font-size="14" fill="#374151">μ„¤μ •</text>

  <!-- λ¦¬ν¬νΈ μƒμ„± -->
  <rect x="950" y="695" width="200" height="50" rx="25" fill="#10b981"/>
  <text x="1050" y="715" text-anchor="middle" font-family="Arial, sans-serif" font-size="14" fill="white" font-weight="bold">π“‹ λ©΄μ ‘ λ¦¬ν¬νΈ μƒμ„±</text>
  <text x="1050" y="730" text-anchor="middle" font-family="Arial, sans-serif" font-size="12" fill="white">μƒμ„Έν• λ¶„μ„ κ²°κ³Ό ν™•μΈ</text>

  <!-- νƒ€μ΄λ¨Έ -->
  <text x="600" y="700" font-family="Arial, sans-serif" font-size="24" font-weight="bold" fill="#1f2937" text-anchor="middle">15:23</text>
  <text x="600" y="720" font-family="Arial, sans-serif" font-size="14" fill="#6b7280" text-anchor="middle">λ©΄μ ‘ μ§„ν–‰ μ‹κ°„</text>

  <!-- λ°°ν„°λ¦¬/μ‹μ¤ν… μƒνƒ -->
  <rect x="650" y="690" width="30" height="15" rx="3" fill="none" stroke="#6b7280" stroke-width="1"/>
  <rect x="680" y="695" width="3" height="5" rx="1" fill="#6b7280"/>
  <rect x="653" y="693" width="24" height="9" fill="#10b981"/>
  <text x="690" y="705" font-family="Arial, sans-serif" font-size="12" fill="#6b7280">85%</text>
</svg>
